<?xml version="1.0" encoding="UTF-8" standalone="no"?>
<!-- Created with Inkscape (http://www.inkscape.org/) -->

<svg xmlns:dc="http://purl.org/dc/elements/1.1/" xmlns:cc="http://creativecommons.org/ns#" xmlns:rdf="http://www.w3.org/1999/02/22-rdf-syntax-ns#" xmlns:svg="http://www.w3.org/2000/svg" xmlns="http://www.w3.org/2000/svg" version="1.1" width="163.81308" height="200.44551" viewBox="0 0 163.81309 200.44551" id="svg12211">
  <defs id="defs12213" />
  <metadata id="metadata12216">
    <rdf:RDF>
      <cc:Work rdf:about="">
        <dc:format>image/svg+xml</dc:format>
        <dc:type rdf:resource="http://purl.org/dc/dcmitype/StillImage" />
        <dc:title></dc:title>
      </cc:Work>
    </rdf:RDF>
  </metadata>
  <g transform="translate(4.3562901,-857.46787)" id="layer1">
    <path d="M 103.63325,1015.4855 C 104.83532,981.16127 155.17321,966.68365 152.17329,927.66114 152.17329,892.90846 121.1926,864.62305 77.550253,864.62305 33.907903,864.62305 2.9272225,892.90846 2.9272225,927.66114 -0.07269747,966.68365 50.265183,981.16127 51.467263,1015.4855 z" id="bublll" style="color:#000000;fill:none;stroke:#ffffff;stroke-width:4.31035566;stroke-linecap:round;stroke-linejoin:round;stroke-miterlimit:0;stroke-opacity:1;stroke-dasharray:none;stroke-dashoffset:0;marker:none;visibility:visible;display:inline;overflow:visible;enable-background:accumulate" />
    <path d="M 68.519543,1050.758 86.612603,1050.758" id="path13011" style="color:#000000;fill:none;stroke:#ffffff;stroke-width:4.31035566;stroke-linecap:round;stroke-linejoin:round;stroke-miterlimit:0;stroke-opacity:1;stroke-dasharray:none;stroke-dashoffset:0;marker:none;visibility:visible;display:inline;overflow:visible;enable-background:accumulate" />
    <path d="M 51.278123,1041.9485 103.63325,1041.9485" id="path13009" style="color:#000000;fill:none;stroke:#ffffff;stroke-width:4.31035566;stroke-linecap:round;stroke-linejoin:round;stroke-miterlimit:0;stroke-opacity:1;stroke-dasharray:none;stroke-dashoffset:0;marker:none;visibility:visible;display:inline;overflow:visible;enable-background:accumulate" />
    <path d="M 51.278123,1033.1398 103.63325,1033.1398" id="path13007" style="color:#000000;fill:none;stroke:#ffffff;stroke-width:4.31035566;stroke-linecap:round;stroke-linejoin:round;stroke-miterlimit:0;stroke-opacity:1;stroke-dasharray:none;stroke-dashoffset:0;marker:none;visibility:visible;display:inline;overflow:visible;enable-background:accumulate" />
    <path d="M 51.278123,1024.3303 103.63325,1024.3303" id="bulb" style="color:#000000;fill:none;stroke:#ffffff;stroke-width:4.31035566;stroke-linecap:round;stroke-linejoin:round;stroke-miterlimit:0;stroke-opacity:1;stroke-dasharray:none;stroke-dashoffset:0;marker:none;visibility:visible;display:inline;overflow:visible;enable-background:accumulate" />
    <path d="M 25.932614,935.03541 43.133705,920.5537 61.108077,935.03541 79.082258,920.5537 97.056549,935.03541 115.03082,920.5537 132.23201,935.03541" id="rayo" />
    <path d="M 77.550248,778.58394 77.550248,833.81601 z M 8.4189757,802.53314 26.502814,844.40244 z M 146.68153,802.53314 128.5977,844.40244 z M -40.806797,867.57655 -15.666899,885.78316 z M 195.9073,867.57655 170.76742,885.78316 z M -18.837491,951.2237 -61.250289,951.39874 z M 173.938,951.2237 216.3508,951.39874 z" id="luz" style="stroke:#000000;stroke-opacity:1" />
    <path d="M 258.07672,1133.0585 258.07672,1134.8271 269.54451,1134.8271 C 269.79807,1134.8271 270.02628,1134.7511 270.22915,1134.5989 270.44467,1134.4468 270.62851,1134.2566 270.78067,1134.0284 270.9328,1133.7875 271.04691,1133.5213 271.12299,1133.2296 271.21173,1132.938 271.2561,1132.6528 271.25612,1132.3738 L 271.25612,1132.3358 C 271.2561,1132.0569 271.20539,1131.7716 271.10397,1131.48 271.00253,1131.1884 270.86941,1130.9285 270.7046,1130.7003 270.53976,1130.4594 270.36226,1130.2692 270.1721,1130.1297 269.98191,1129.9776 269.79807,1129.9015 269.62058,1129.9015 L 261.74718,1129.9015 C 261.72181,1129.8128 261.69646,1129.743 261.6711,1129.6923 261.65842,1129.6416 261.65208,1129.5972 261.65209,1129.5592 261.65208,1129.4578 261.69646,1129.3437 261.78521,1129.2169 261.87396,1129.0774 261.97539,1128.9506 262.0895,1128.8365 262.2036,1128.7097 262.31137,1128.6083 262.4128,1128.5322 262.51423,1128.4435 262.57762,1128.3991 262.60298,1128.3991 L 270.24817,1128.3991 270.24817,1126.6875 262.60298,1126.6875 C 261.93101,1126.6875 261.32244,1126.827 260.77726,1127.1059 260.24476,1127.3848 259.78199,1127.7525 259.38896,1128.2089 259.0086,1128.6654 258.71065,1129.1915 258.49512,1129.7874 258.29226,1130.3833 258.19083,1130.9982 258.19083,1131.6321 L 267.94701,1131.6321 C 268.08646,1131.6321 268.19423,1131.7209 268.27031,1131.8984 268.35905,1132.0759 268.40342,1132.2217 268.40343,1132.3358 268.40342,1132.3865 268.39708,1132.4563 268.38442,1132.545 268.37173,1132.6211 268.34637,1132.6971 268.30835,1132.7732 268.2703,1132.8493 268.21958,1132.919 268.1562,1132.9824 268.0928,1133.0331 268.01039,1133.0585 267.90897,1133.0585 L 258.07672,1133.0585 M 221.74954,1130.9285 C 221.44525,1131.2074 221.15364,1131.518 220.87472,1131.8604 220.60847,1132.2027 220.37391,1132.5513 220.17106,1132.9063 219.98088,1133.2487 219.82239,1133.591 219.69561,1133.9333 219.5815,1134.263 219.52445,1134.5609 219.52445,1134.8271 L 232.62777,1134.8271 232.62777,1133.0965 223.28999,1133.0965 C 223.50552,1132.6908 223.72106,1132.3738 223.9366,1132.1456 224.16481,1131.9047 224.4057,1131.7336 224.65928,1131.6321 L 231.41062,1131.6321 231.41062,1129.9015 223.61329,1129.9015 223.61329,1129.8635 C 223.61329,1129.7113 223.664,1129.5592 223.76544,1129.4071 223.86686,1129.2422 223.98731,1129.0901 224.12678,1128.9506 224.27891,1128.7985 224.4374,1128.678 224.60222,1128.5893 224.76704,1128.4879 224.91284,1128.4245 225.03963,1128.3991 L 232.3425,1128.3991 232.3425,1126.6875 224.60222,1126.6875 C 223.96829,1126.6875 223.36606,1126.8206 222.79552,1127.0869 222.23766,1127.3531 221.73052,1127.6891 221.27409,1128.0948 220.83034,1128.5005 220.45632,1128.957 220.15204,1129.4641 219.84775,1129.9713 219.63855,1130.4594 219.52445,1130.9285 L 221.74954,1130.9285 M 194.07188,1134.8271 194.07188,1126.6875 191.40937,1126.6875 191.40937,1130.5101 C 190.96561,1130.003 190.3824,1129.5212 189.65973,1129.0647 188.94972,1128.6083 188.18901,1128.2026 187.37758,1127.8476 186.56615,1127.4926 185.74838,1127.2137 184.92428,1127.0108 184.10017,1126.7953 183.35847,1126.6875 182.69918,1126.6875 L 181.1207,1126.6875 181.1207,1134.8271 183.80222,1134.8271 183.80222,1129.2929 C 184.56293,1129.3563 185.32999,1129.5465 186.10339,1129.8635 186.88945,1130.1805 187.63749,1130.5862 188.3475,1131.0806 189.05749,1131.5751 189.71043,1132.1456 190.30634,1132.7922 190.9149,1133.4262 191.42204,1134.1045 191.82777,1134.8271 L 194.07188,1134.8271 M 143.19986,1134.8271 143.19986,1128.304 C 143.19986,1128.1012 143.26959,1127.9046 143.40906,1127.7145 143.5612,1127.5116 143.74504,1127.3341 143.96058,1127.182 144.18879,1127.0298 144.42968,1126.9094 144.68326,1126.8206 144.94951,1126.7319 145.20308,1126.6875 145.44397,1126.6875 L 155.67559,1126.6875 155.67559,1133.2677 C 155.67558,1133.4198 155.60585,1133.591 155.4664,1133.7812 155.32692,1133.9587 155.14942,1134.1235 154.9339,1134.2756 154.73103,1134.4278 154.50281,1134.5609 154.24925,1134.675 154.00835,1134.7764 153.78647,1134.8271 153.58363,1134.8271 L 143.19986,1134.8271 M 152.99407,1128.4181 146.94639,1128.4181 C 146.61674,1128.5196 146.38218,1128.6527 146.24272,1128.8175 146.10326,1128.9823 145.98915,1129.1915 145.9004,1129.4451 L 145.9004,1133.0965 151.87202,1133.0965 C 152.30308,1132.9951 152.58201,1132.8746 152.7088,1132.7352 152.84826,1132.583 152.94335,1132.3421 152.99407,1132.0125 L 152.99407,1128.4181 M 115.12226,1126.6875 115.12226,1134.8271 117.74672,1134.8271 117.74672,1126.6875 115.12226,1126.6875 M 77.201404,1134.8271 89.658117,1134.8271 89.658117,1133.0965 79.882926,1133.0965 79.882926,1129.4451 C 79.971672,1129.1915 80.092119,1128.9823 80.244265,1128.8175 80.409083,1128.6527 80.656315,1128.5196 80.985963,1128.4181 L 89.677135,1128.4181 89.677135,1126.6875 79.445514,1126.6875 C 79.153904,1126.6875 78.881315,1126.7382 78.627745,1126.8396 78.374172,1126.9411 78.145958,1127.0679 77.943102,1127.22 77.752922,1127.3721 77.5881,1127.5433 77.448637,1127.7335 77.32185,1127.9237 77.23944,1128.1138 77.201404,1128.304 L 77.201404,1134.8271 M 41.887793,1131.0046 41.887793,1129.4451 C 41.97654,1129.1535 42.103326,1128.938 42.268151,1128.7985 42.432969,1128.6463 42.737254,1128.5196 43.181009,1128.4181 L 49.057535,1128.4181 49.057535,1131.0046 41.887793,1131.0046 M 41.887793,1134.8271 41.887793,1132.7352 49.057535,1132.7352 49.057535,1134.8271 51.739056,1134.8271 51.739056,1126.6875 41.488418,1126.6875 C 41.310915,1126.6875 41.108058,1126.7319 40.879846,1126.8206 40.651629,1126.9094 40.423415,1127.0362 40.195202,1127.201 39.979664,1127.3531 39.776807,1127.5306 39.58663,1127.7335 39.409129,1127.9363 39.282343,1128.1519 39.206272,1128.3801 L 39.206272,1134.8271 41.887793,1134.8271 M 13.737379,1134.8271 13.737379,1128.3801 C 13.648613,1128.1519 13.515488,1127.9363 13.338003,1127.7335 13.173166,1127.5306 12.982988,1127.3531 12.767467,1127.201 12.551916,1127.0362 12.323702,1126.9094 12.082823,1126.8206 11.854594,1126.7319 11.632719,1126.6875 11.417197,1126.6875 L 7.119156,1126.6875 7.119156,1127.6194 C 6.8782537,1127.4038 6.6563786,1127.2327 6.4535302,1127.1059 6.2633428,1126.9791 6.0795035,1126.884 5.9020116,1126.8206 5.737182,1126.7572 5.5723605,1126.7192 5.4075467,1126.7065 5.2553961,1126.6938 5.1032532,1126.6875 4.9511175,1126.6875 L -1.6861231,1126.6875 -1.6861231,1134.8271 0.9953982,1134.8271 0.9953982,1128.4181 3.4677228,1128.4181 C 3.8987886,1128.5196 4.1903958,1128.6463 4.3425453,1128.7985 4.4946816,1128.938 4.6087888,1129.1535 4.6848672,1129.4451 L 4.6848672,1134.8271 7.3663885,1134.8271 7.3663885,1128.4181 9.9528203,1128.4181 C 10.168344,1128.4688 10.339505,1128.5259 10.466303,1128.5893 10.593076,1128.6527 10.694505,1128.7288 10.770589,1128.8175 10.846648,1128.8936 10.903701,1128.9823 10.94175,1129.0837 10.979773,1129.1852 11.017808,1129.3056 11.055857,1129.4451 L 11.055857,1134.8271 13.737379,1134.8271 M -29.763729,1126.6875 -29.763729,1134.8271 -27.139262,1134.8271 -27.139262,1126.6875 -29.763729,1126.6875 M -55.216281,1134.8271 -55.216281,1126.6875 -57.878784,1126.6875 -57.878784,1130.5101 C -58.322545,1130.003 -58.905759,1129.5212 -59.628429,1129.0647 -60.338438,1128.6083 -61.099153,1128.2026 -61.910575,1127.8476 -62.72201,1127.4926 -63.539778,1127.2137 -64.363881,1127.0108 -65.187993,1126.7953 -65.92969,1126.6875 -66.588974,1126.6875 L -68.167458,1126.6875 -68.167458,1134.8271 -65.485936,1134.8271 -65.485936,1129.2929 C -64.725225,1129.3563 -63.958171,1129.5465 -63.184773,1129.8635 -62.398707,1130.1805 -61.650671,1130.5862 -60.940663,1131.0806 -60.23067,1131.5751 -59.577724,1132.1456 -58.981821,1132.7922 -58.373259,1133.4262 -57.866116,1134.1045 -57.460391,1134.8271 L -55.216281,1134.8271 M -106.16259,1134.8271 -106.16259,1128.3801 C -106.08652,1128.1519 -105.95974,1127.9363 -105.78224,1127.7335 -105.59206,1127.5306 -105.3892,1127.3531 -105.17366,1127.201 -104.94545,1127.0362 -104.71724,1126.9094 -104.48902,1126.8206 -104.26081,1126.7319 -104.05795,1126.6875 -103.88045,1126.6875 L -93.62981,1126.6875 -93.62981,1134.8271 -96.311331,1134.8271 -96.311331,1132.7352 -103.48107,1132.7352 -103.48107,1134.8271 -106.16259,1134.8271 M -96.311331,1131.0046 -96.311331,1128.4181 -102.18786,1128.4181 C -102.63161,1128.5196 -102.9359,1128.6463 -103.10072,1128.7985 -103.26554,1128.938 -103.39233,1129.1535 -103.48107,1129.4451 L -103.48107,1131.0046 -96.311331,1131.0046" id="animaciones" />
    <path d="M 315.848,1081.3258 298.18594,1081.585 C 281.07283,1081.8298 280.41689,1081.904 277.59753,1083.8377 273.70868,1086.5053 271.04947,1090.5264 270.50163,1094.611 L 270.06132,1097.9776 289.847,1098.1854 309.63262,1098.418 309.63262,1100.49 309.63262,1102.5615 289.95054,1102.7947 270.26852,1103.0019 270.26852,1105.9027 270.26852,1108.777 290.90881,1108.777 311.52318,1108.777 314.11292,1105.8507 C 317.16359,1102.376 317.44191,1098.8695 315.0193,1094.8961 L 313.38777,1092.2031 296.39909,1092.2031 C 286.50461,1092.2031 279.38438,1091.8729 279.38438,1091.4257 279.38438,1091.0033 280.35891,1089.8841 281.55978,1088.9398 283.59813,1087.3362 284.81086,1087.2303 299.79161,1087.2303 L 315.848,1087.2303 315.848,1084.278 315.848,1081.3258 z M 260.32391,1081.3518 240.09802,1081.585 C 214.02558,1081.905 215.57312,1080.9257 215.57312,1097.3306 L 215.57312,1108.777 220.13105,1108.777 224.68904,1108.777 224.68904,1103.8047 224.68904,1098.8324 237.94849,1098.8324 251.20799,1098.8324 251.20799,1103.8047 251.20799,1108.777 255.76592,1108.777 260.32391,1108.777 260.32391,1095.0514 260.32391,1081.3518 z M -151.54897,1081.4292 -151.54897,1095.1033 -151.54897,1108.777 -146.57669,1108.777 -141.60436,1108.777 -141.60436,1095.1033 -141.60436,1081.4292 -146.57669,1081.4292 -151.54897,1081.4292 z M -130.83105,1081.4292 -130.83105,1095.1033 -130.83105,1108.777 -111.27843,1108.777 -91.700004,1108.777 -88.903063,1105.9541 C -86.10856,1103.1598 -86.080262,1103.0771 -86.080262,1095.5437 -86.080262,1087.6176 -86.75369,1085.2971 -89.705952,1082.9055 -91.268222,1081.6401 -93.752507,1081.4716 -111.14897,1081.4551 L -130.83105,1081.4292 z M -49.642559,1081.4292 C -70.079038,1081.4292 -72.442236,1081.9008 -75.280987,1086.5572 -76.707385,1088.8969 -76.961748,1090.7352 -76.964398,1099.0396 L -76.964398,1108.777 -54.174631,1108.777 -31.384918,1108.777 -31.384918,1105.8767 -31.384918,1102.9759 -44.100505,1102.9759 C -51.098421,1102.9759 -59.116282,1102.7252 -61.917939,1102.4322 -66.566276,1101.9463 -67.019785,1101.729 -67.019785,1099.9463 L -67.019785,1098.0036 -49.202351,1098.0036 -31.384918,1098.0036 -31.384918,1095.1033 -31.384918,1092.2031 -49.202351,1092.2031 C -60.528106,1092.2031 -67.019785,1091.901 -67.019785,1091.3743 -67.019785,1090.918 -66.273917,1089.7993 -65.362341,1088.8879 -63.818194,1087.3437 -62.599898,1087.2303 -47.544907,1087.2303 L -31.384918,1087.2303 -31.384918,1084.33 -31.384918,1081.4292 -49.642559,1081.4292 z M 5.2082652,1081.4292 C -14.01527,1081.4292 -14.635811,1081.4758 -17.374354,1083.3199 L -20.197208,1085.2107 -20.430216,1096.9936 -20.66333,1108.777 -16.079431,1108.777 -11.495639,1108.777 -11.495639,1103.8047 -11.495639,1098.8324 1.76381,1098.8324 15.023312,1098.8324 15.023312,1103.8047 15.023312,1108.777 19.995645,1108.777 24.967925,1108.777 24.967925,1095.1033 24.967925,1081.4292 5.2082652,1081.4292 z M 63.063125,1081.4292 C 45.3096,1081.4292 42.722668,1081.878 39.082088,1085.6765 36.773685,1088.0856 34.134238,1093.6254 34.109755,1096.1134 L 34.083842,1097.9776 53.76592,1098.1854 73.447946,1098.418 73.447946,1100.49 73.447946,1102.5615 53.76592,1102.7947 34.083842,1103.0019 34.083842,1105.9027 34.083842,1108.777 54.74999,1108.777 75.390331,1108.777 77.954105,1106.2392 C 81.026341,1103.1672 81.336029,1098.9983 78.834627,1094.8961 L 77.203149,1092.2031 60.214411,1092.2031 C 50.319929,1092.2031 43.199759,1091.8729 43.199759,1091.4257 43.199759,1091.0033 44.174237,1089.8841 45.375152,1088.9398 47.413453,1087.3362 48.626184,1087.2303 63.606933,1087.2303 L 79.663322,1087.2303 79.663322,1084.33 79.663322,1081.4292 63.063125,1081.4292 z M 122.8344,1081.4292 C 104.44041,1081.4292 102.31065,1081.9999 96.030512,1088.7326 L 92.094128,1092.954 92.094128,1100.8785 92.094128,1108.777 97.066408,1108.777 102.03874,1108.777 102.03874,1103.4163 102.03874,1098.0296 120.06332,1097.8224 138.08806,1097.5892 138.34704,1094.8961 138.60601,1092.2031 121.97974,1092.2031 C 111.67764,1092.2031 105.35358,1091.9031 105.35358,1091.3997 105.35358,1090.9535 106.83758,1089.8348 108.64261,1088.9138 111.5317,1087.4396 113.51531,1087.2303 125.217,1087.2303 L 138.50241,1087.2303 138.50241,1084.33 138.50241,1081.4292 122.8344,1081.4292 z M 148.44697,1081.4292 148.44697,1095.1033 148.44697,1108.777 153.41925,1108.777 158.39153,1108.777 158.39153,1095.1033 158.39153,1081.4292 153.41925,1081.4292 148.44697,1081.4292 z M 194.85515,1081.4292 194.85515,1091.3997 C 194.85515,1101.3342 194.85075,1101.3676 192.73158,1102.1731 191.56241,1102.6177 185.59562,1102.9759 179.47208,1102.9759 L 168.3362,1102.9759 168.3362,1105.8767 168.3362,1108.777 182.89052,1108.777 C 204.13052,1108.777 204.58117,1108.4193 204.95513,1092.3843 L 205.21416,1081.4292 200.03463,1081.4292 194.85515,1081.4292 z M -121.71513,1088.0591 -110.1649,1088.0591 C -96.362914,1088.0591 -96.024928,1088.2382 -96.024928,1095.5437 -96.024928,1099.524 -96.324071,1100.5934 -97.630546,1101.2929 -98.512128,1101.7645 -104.29244,1102.1476 -110.47565,1102.1476 L -121.71513,1102.1476 -121.71513,1095.1033 -121.71513,1088.0591 z M 3.6025945,1088.0591 15.023312,1088.0591 15.023312,1090.5455 15.023312,1093.0313 1.76381,1093.0313 C -9.2383199,1093.0313 -11.495639,1092.8326 -11.495639,1091.8401 -11.495639,1088.8894 -8.1964357,1088.0591 3.6025945,1088.0591 z M 239.24336,1088.0591 251.20799,1088.0591 251.20799,1090.5455 251.20799,1093.0313 237.94849,1093.0313 C 227.00942,1093.0313 224.68904,1092.8167 224.68904,1091.8401 224.68904,1091.1893 225.26772,1090.0701 225.98391,1089.3542 227.04747,1088.2906 229.47818,1088.0591 239.24336,1088.0591 z" id="IDEASFIJAS" />
  </g>
</svg>
